<svg width="25" height="25" viewBox="0 0 25 25" fill="none" xmlns="http://www.w3.org/2000/svg">
<path fill-rule="evenodd" clip-rule="evenodd" d="M21.7164 1.95704C20.496 0.736653 18.5174 0.736649 17.297 1.95704L2.5495 16.7046C2.11325 17.1408 1.81588 17.6964 1.69489 18.3013L1.08336 21.359C0.791813 22.8167 2.07706 24.1021 3.53481 23.8105L6.59246 23.1989C7.19743 23.078 7.75305 22.7806 8.1893 22.3444L22.9367 7.59684C24.1572 6.37646 24.1572 4.39782 22.9367 3.17742L21.7164 1.95704ZM18.7701 3.43017C19.177 3.02338 19.8364 3.02338 20.2433 3.43017L21.4636 4.65057C21.8705 5.05736 21.8705 5.7169 21.4636 6.12371L18.6807 8.90661L15.9873 6.21308L18.7701 3.43017ZM14.514 7.68623L4.02263 18.1777C3.87722 18.3231 3.7781 18.5083 3.73777 18.71L3.12624 21.7676L6.18388 21.156C6.38554 21.1157 6.57075 21.0166 6.71617 20.8712L17.2076 10.3797L14.514 7.68623Z" fill="#0F0F0F"/>
</svg>
