<svg width="25" height="25" viewBox="0 0 25 25" fill="none" xmlns="http://www.w3.org/2000/svg">
<path d="M24.4047 18.4525V7.73818C24.4047 7.73818 13.5714 15.2977 12.5178 15.69C11.4821 15.3156 0.595215 7.73818 0.595215 7.73818V18.4525C0.595215 19.9406 0.910691 20.2382 2.38093 20.2382H22.619C24.1244 20.2382 24.4047 19.9769 24.4047 18.4525ZM24.3875 5.63758C24.3875 4.55365 24.0714 4.16675 22.619 4.16675H2.38093C0.886882 4.16675 0.595215 4.63103 0.595215 5.71437L0.613072 5.88103C0.613072 5.88103 11.3684 13.2858 12.5178 13.6906C13.7321 13.2203 24.4047 5.71437 24.4047 5.71437L24.3875 5.63758Z" fill="#D5D5D5"/>
</svg>
