<svg width="25" height="25" viewBox="0 0 25 25" fill="none" xmlns="http://www.w3.org/2000/svg">
<path d="M20.1569 9.01119H13.0464C12.727 7.82443 12.4688 7.19859 12.1943 6.87126C12.3114 6.63162 12.4512 6.40973 12.6216 6.23541C12.8059 6.04544 13.3462 6.08958 13.6396 6.15568C13.6396 6.15568 13.78 6.31308 13.8621 6.38796C15.0623 7.48027 16.6294 7.13588 17.4381 6.88453C21.6738 5.56978 19.8274 0 19.8274 0C19.0763 1.21787 14.5401 1.45609 13.6593 3.12159C13.236 3.92331 13.1194 4.57197 13.1825 5.09694C13.4733 5.06515 16.8426 4.65581 18.5865 2.58747C18.5865 2.58747 16.548 5.76386 13.3432 5.68491C12.7077 5.66899 12.3217 5.65659 11.8963 6.62504C11.6668 6.50812 11.4111 6.51498 11.0922 6.52303C7.88729 6.60203 5.84913 3.42559 5.84913 3.42559C7.59212 5.49394 10.9618 5.90328 11.2525 5.93507C11.3159 5.41055 11.1993 4.76143 10.7754 3.95972C9.8948 2.29399 5.3586 2.05632 4.60748 0.838124C4.60748 0.838124 2.76176 6.40785 6.99675 7.72284C7.80546 7.97387 9.37289 8.31839 10.573 7.22599C10.6549 7.15116 10.7951 6.99412 10.7951 6.99412C11.0892 6.92803 11.6288 6.88384 11.8135 7.07358C12.2902 7.56365 12.5425 8.42428 12.666 9.01124H4.8425C4.22092 9.01124 3.7168 9.51508 3.7168 10.137V11.3759C3.7168 11.9979 4.22092 12.5018 4.8425 12.5018H5.18304L6.08123 23.874C6.08123 24.4967 6.5853 25 7.20743 25H17.668C18.2897 25 18.7946 24.4967 18.7946 23.874L19.821 12.4998L20.1563 12.5016C20.7787 12.5016 21.2832 11.9977 21.2832 11.3757V10.1368C21.2823 9.51508 20.7776 9.01119 20.1569 9.01119Z" fill="#C9C9C9"/>
</svg>
