<svg width="40" height="40" viewBox="0 0 40 40" fill="none" xmlns="http://www.w3.org/2000/svg">
<circle cx="20" cy="20" r="20" fill="white"/>
<path d="M20 19.5029C21.3371 19.5029 22.6194 18.9718 23.5649 18.0263C24.5103 17.0808 25.0415 15.7985 25.0415 14.4614C25.0415 13.1243 24.5103 11.842 23.5649 10.8965C22.6194 9.95108 21.3371 9.41992 20 9.41992C18.6629 9.41992 17.3806 9.95108 16.4351 10.8965C15.4897 11.842 14.9585 13.1243 14.9585 14.4614C14.9585 15.7985 15.4897 17.0808 16.4351 18.0263C17.3806 18.9718 18.6629 19.5029 20 19.5029ZM20 21.7179C13.297 21.7179 9 25.4169 9 27.2179V30.5809H31V27.2179C31 25.0399 26.932 21.7179 20 21.7179Z" fill="#292929"/>
</svg>
