<svg width="32" height="32" viewBox="0 0 32 32" fill="none" xmlns="http://www.w3.org/2000/svg">
<path d="M16 15.5029C17.3371 15.5029 18.6194 14.9718 19.5649 14.0263C20.5103 13.0808 21.0415 11.7985 21.0415 10.4614C21.0415 9.12433 20.5103 7.84201 19.5649 6.89654C18.6194 5.95108 17.3371 5.41992 16 5.41992C14.6629 5.41992 13.3806 5.95108 12.4351 6.89654C11.4897 7.84201 10.9585 9.12433 10.9585 10.4614C10.9585 11.7985 11.4897 13.0808 12.4351 14.0263C13.3806 14.9718 14.6629 15.5029 16 15.5029ZM16 17.7179C9.297 17.7179 5 21.4169 5 23.2179V26.5809H27V23.2179C27 21.0399 22.932 17.7179 16 17.7179Z" fill="#D5D5D5"/>
</svg>
