<svg width="25" height="25" viewBox="0 0 25 25" fill="none" xmlns="http://www.w3.org/2000/svg">
<g clip-path="url(#clip0_238_1030)">
<path fill-rule="evenodd" clip-rule="evenodd" d="M11.6667 7.5C11.6667 3.35787 15.0245 0 19.1667 0H25V5.83333C25 9.97547 21.6422 13.3333 17.5 13.3333H13.3333V25H11.6667V18.3333H7.5C3.35787 18.3333 0 14.9755 0 10.8333V5H5.83333C8.18938 5 10.2917 6.08638 11.6667 7.78555V7.5ZM13.5775 10.244L18.5775 5.24403L19.756 6.42255L14.756 11.4225L13.5775 10.244ZM10.2441 16.4226L5.24413 11.4225L6.42265 10.244L11.4226 15.244L10.2441 16.4226Z" fill="#C9C9C9"/>
</g>
<defs>
<clipPath id="clip0_238_1030">
<rect width="25" height="25" fill="white"/>
</clipPath>
</defs>
</svg>
