<svg width="25" height="25" viewBox="0 0 25 25" fill="none" xmlns="http://www.w3.org/2000/svg">
<g clip-path="url(#clip0_223_628)">
<path d="M12.6158 21.8809C12.0405 21.8809 11.574 21.949 11.574 22.7664C11.574 23.1634 12.0404 24.9999 12.6158 24.9999C13.1912 24.9999 13.6576 23.1634 13.6576 22.7664C13.6576 21.949 13.1912 21.8809 12.6158 21.8809Z" fill="#BFB61E"/>
<path d="M17.2194 20.6476C16.7211 20.9352 16.3512 21.2275 16.7599 21.9354C16.9584 22.2792 18.2806 23.6364 18.7789 23.3487C19.2772 23.061 18.7629 21.2373 18.5644 20.8935C18.1557 20.1857 17.7176 20.3599 17.2194 20.6476Z" fill="#BFB61E"/>
<path d="M21.8772 16.818C21.1693 16.4093 20.877 16.7792 20.5893 17.2775C20.3016 17.7757 20.1274 18.2138 20.8353 18.6225C21.1791 18.821 23.0028 19.3353 23.2905 18.837C23.5782 18.3387 22.221 17.0165 21.8772 16.818Z" fill="#BFB61E"/>
<path d="M22.7084 11.6321C21.891 11.6321 21.8229 12.0985 21.8229 12.6739C21.8229 13.2493 21.891 13.7157 22.7084 13.7157C23.1054 13.7157 24.9419 13.2493 24.9419 12.6739C24.9419 12.0985 23.1054 11.6321 22.7084 11.6321Z" fill="#BFB61E"/>
<path d="M20.8355 6.72536C20.1276 7.13406 20.3018 7.57209 20.5895 8.07038C20.8772 8.56863 21.1694 8.93855 21.8773 8.52986C22.2211 8.33137 23.5783 7.00915 23.2906 6.51086C23.0029 6.01257 21.1792 6.52688 20.8355 6.72536Z" fill="#BFB61E"/>
<path d="M8.01228 20.6476C7.51399 20.3599 7.07595 20.1857 6.66726 20.8936C6.46877 21.2374 5.95447 23.061 6.45276 23.3487C6.95105 23.6364 8.27322 22.2792 8.47175 21.9354C8.88044 21.2275 8.51057 20.9353 8.01228 20.6476Z" fill="#BFB61E"/>
<path d="M20.7142 12.6739C20.7142 10.4376 19.8077 8.41299 18.3423 6.94751L6.88953 18.4002C8.355 19.8657 10.3796 20.7722 12.6159 20.7722C17.0885 20.7722 20.7142 17.1464 20.7142 12.6739Z" fill="#BFB61E"/>
<path d="M8.01323 4.699C7.51796 4.98488 7.08305 5.15803 6.68037 4.47351C6.67636 4.46945 6.67231 4.46145 6.66826 4.45339C6.46694 4.11115 5.95556 2.28703 6.45082 1.99709C6.82529 1.77961 7.67494 2.50041 8.14609 3.01179C8.30712 3.18093 8.42392 3.3259 8.47226 3.41042C8.87895 4.11916 8.51254 4.41311 8.01323 4.699Z" fill="#C6BA56"/>
<path d="M13.6587 2.58101V2.60918C13.6466 3.39844 13.1835 3.46689 12.6158 3.46689C12.1608 3.46689 11.7742 3.42261 11.6333 3.00386C11.593 2.89512 11.5729 2.7542 11.5729 2.58101C11.5729 2.3354 11.7501 1.54214 12.0198 0.970313C12.193 0.615967 12.3984 0.346191 12.6158 0.346191C12.6802 0.346191 12.7447 0.370361 12.8051 0.414648C13.2923 0.74082 13.6587 2.22666 13.6587 2.58101Z" fill="#C6BA56"/>
<path d="M4.64279 8.06948C4.35285 8.5688 4.06296 8.93926 3.35422 8.52852C3.16096 8.41978 2.64953 7.95269 2.28713 7.47754C2.28313 7.47349 2.27907 7.46948 2.27907 7.46543C2.00124 7.09902 1.81599 6.72857 1.94079 6.51108C2.23073 6.01177 4.0508 6.5272 4.39709 6.72451C4.45749 6.76074 4.51384 6.79697 4.56218 6.8332C5.07365 7.21182 4.90451 7.61445 4.64279 8.06948Z" fill="#C6BA56"/>
<path d="M3.41067 12.6719C3.41067 13.2357 3.34622 13.6988 2.56907 13.7148H2.52478C2.14226 13.7148 0.418823 13.2799 0.297974 12.7323C0.29397 12.7323 0.29397 12.7323 0.29397 12.7323C0.29397 12.7122 0.289917 12.6921 0.289917 12.6719C0.289917 12.4504 0.567749 12.2411 0.930151 12.076C1.50198 11.8062 2.28313 11.6331 2.52473 11.6331C2.75427 11.6331 2.92336 11.6693 3.04822 11.7337C3.37444 11.9028 3.41067 12.2612 3.41067 12.6719Z" fill="#C6BA56"/>
<path d="M3.35456 16.818C3.01076 17.0165 1.65353 18.3387 1.94123 18.837C2.22892 19.3353 4.0526 18.821 4.39635 18.6225C5.10426 18.2138 4.93004 17.7757 4.64235 17.2775C4.3547 16.7792 4.06242 16.4093 3.35456 16.818Z" fill="#C6BA56"/>
<path d="M17.2194 4.70014C17.7176 4.98783 18.1557 5.16205 18.5644 4.45414C18.7629 4.11034 19.2772 2.28666 18.7789 1.99897C18.2806 1.71127 16.9584 3.0685 16.7599 3.41229C16.3512 4.12021 16.7211 4.41244 17.2194 4.70014Z" fill="#C6BA56"/>
<path d="M12.6159 4.57544C8.14331 4.57544 4.51758 8.20117 4.51758 12.6737C4.51758 14.91 5.42397 16.9346 6.8895 18.4001L18.3422 6.94736C16.8767 5.48184 14.8521 4.57544 12.6159 4.57544Z" fill="#C6BA56"/>
<path d="M12.3246 21.5315C11.7492 21.5315 11.2827 21.5996 11.2827 22.417C11.2827 22.8141 11.7492 24.6505 12.3246 24.6505C12.9 24.6505 13.3664 22.8141 13.3664 22.417C13.3664 21.5997 12.8999 21.5315 12.3246 21.5315Z" fill="#EFE748"/>
<path d="M16.9281 20.298C16.4298 20.5857 16.0599 20.8779 16.4686 21.5858C16.6671 21.9296 17.9893 23.2868 18.4876 22.9991C18.9859 22.7114 18.4716 20.8878 18.2731 20.544C17.8644 19.836 17.4264 20.0103 16.9281 20.298Z" fill="#EFE748"/>
<path d="M21.5859 16.4684C20.878 16.0597 20.5858 16.4296 20.2981 16.9278C20.0104 17.4261 19.8362 17.8642 20.5441 18.2729C20.8879 18.4714 22.7116 18.9857 22.9993 18.4874C23.287 17.9891 21.9297 16.6669 21.5859 16.4684Z" fill="#EFE748"/>
<path d="M22.4172 11.2825C21.5997 11.2825 21.5316 11.7489 21.5316 12.3243C21.5316 12.8997 21.5997 13.3661 22.4172 13.3661C22.8141 13.3661 24.6507 12.8997 24.6507 12.3243C24.6506 11.7489 22.8141 11.2825 22.4172 11.2825Z" fill="#EFE748"/>
<path d="M20.5441 6.37576C19.8362 6.78446 20.0104 7.22249 20.2981 7.72078C20.5858 8.21908 20.878 8.58895 21.5859 8.18026C21.9297 7.98177 23.2869 6.65955 22.9992 6.16126C22.7115 5.66297 20.8879 6.17723 20.5441 6.37576Z" fill="#EFE748"/>
<path d="M7.721 20.298C7.22271 20.0103 6.78467 19.836 6.37598 20.544C6.1775 20.8878 5.66319 22.7114 6.16153 22.9991C6.65982 23.2868 7.98199 21.9296 8.18052 21.5858C8.58917 20.8778 8.21929 20.5857 7.721 20.298Z" fill="#EFE748"/>
<path d="M20.4228 12.3243C20.4228 10.088 19.5164 8.06338 18.0509 6.5979L6.59814 18.0506C8.06367 19.5161 10.0882 20.4226 12.3245 20.4226C16.7971 20.4226 20.4228 16.7968 20.4228 12.3243Z" fill="#EFE748"/>
<path d="M7.71926 4.34888C7.34475 4.56631 7.00252 4.71934 6.68035 4.47373C6.57566 4.39722 6.47498 4.27642 6.37429 4.10328C6.17698 3.76099 5.66155 1.93692 6.16086 1.65098C6.64006 1.37315 7.86824 2.60533 8.14607 3.01202C8.16218 3.03213 8.17424 3.04825 8.1823 3.06436C8.58904 3.769 8.21858 4.06294 7.71926 4.34888Z" fill="#FAF2AF"/>
<path d="M13.3647 2.23081C13.3647 2.25898 13.3647 2.28721 13.3606 2.31138C13.3324 3.05229 12.8814 3.1167 12.3258 3.1167C12.1164 3.1167 11.9231 3.10864 11.758 3.0563C11.7137 3.04424 11.6734 3.02412 11.6332 3.00396C11.5003 2.9355 11.3956 2.82275 11.3392 2.64155C11.3352 2.6375 11.3392 2.6375 11.3392 2.6375C11.303 2.52876 11.2828 2.39189 11.2828 2.23081C11.2828 1.99326 11.452 1.23218 11.7137 0.664404C11.8707 0.322119 12.064 0.0483398 12.2694 0.00805664C12.2895 0.00405273 12.3056 0 12.3258 0C12.499 0 12.664 0.169092 12.805 0.414746C12.8533 0.495264 12.8976 0.583887 12.9419 0.680518C13.1996 1.24424 13.3647 1.99727 13.3647 2.23081Z" fill="#FAF2AF"/>
<path d="M4.35291 7.71934C4.06302 8.21865 3.77308 8.58911 3.06434 8.18242C2.91937 8.09785 2.59324 7.81597 2.28719 7.47773C2.28319 7.47368 2.27913 7.46968 2.27913 7.46563C1.86033 7.00659 1.48587 6.44688 1.65096 6.16099C1.93685 5.66167 3.76097 6.1771 4.10321 6.37441C4.35687 6.52339 4.50184 6.67642 4.56224 6.83345C4.67103 7.11128 4.53411 7.40527 4.35291 7.71934Z" fill="#FAF2AF"/>
<path d="M3.1167 12.3259C3.1167 12.9017 3.04824 13.3648 2.23086 13.3648H2.21875C1.97314 13.3607 1.23623 13.1997 0.680518 12.946C0.5396 12.8775 0.406689 12.8091 0.297949 12.7326C0.293945 12.7326 0.293945 12.7326 0.293945 12.7326C0.112744 12.6078 0 12.4708 0 12.3259C0 12.3098 0 12.2896 0.00805664 12.2735C0.0442871 12.0762 0.285889 11.8991 0.595947 11.742C1.17178 11.4682 1.98516 11.283 2.23081 11.283C2.32344 11.283 2.40801 11.291 2.48452 11.3031C2.8147 11.3514 2.97173 11.5125 3.04824 11.7339C3.06836 11.7863 3.08047 11.8467 3.08853 11.9071C3.1127 12.0319 3.1167 12.1769 3.1167 12.3259Z" fill="#FAF2AF"/>
<path d="M4.1032 18.2734C3.84949 18.4223 2.76633 18.7445 2.11399 18.6921C2.03748 18.6881 1.96902 18.676 1.90461 18.6559C1.78782 18.6237 1.69924 18.5673 1.65095 18.4868C1.60662 18.4102 1.59861 18.3096 1.62278 18.2009C1.75969 17.6049 2.77039 16.6345 3.06433 16.4694C3.2093 16.3848 3.33816 16.3325 3.4509 16.3123C3.83748 16.2278 4.05896 16.4573 4.26433 16.7794C4.29251 16.8278 4.32473 16.8761 4.35291 16.9284C4.45359 17.1096 4.54622 17.2787 4.58245 17.4438C4.65086 17.7378 4.55823 18.0116 4.1032 18.2734Z" fill="#FAF2AF"/>
<path d="M16.9281 4.35077C17.4264 4.63847 17.8644 4.81269 18.2731 4.10478C18.4716 3.76098 18.9859 1.9373 18.4876 1.6496C17.9893 1.3619 16.6671 2.71913 16.4686 3.06293C16.0599 3.77089 16.4298 4.06313 16.9281 4.35077Z" fill="#FAF2AF"/>
<path d="M18.0518 6.59976L18.0155 6.63599L17.8504 6.80107L6.59976 18.0518C6.47896 17.931 6.36621 17.8102 6.25347 17.6813C5.95147 17.3391 5.67764 16.9726 5.43604 16.582C4.671 15.3458 4.22803 13.8881 4.22803 12.3258C4.22803 7.8521 7.8521 4.22803 12.3258 4.22803C13.7875 4.22803 15.1606 4.6146 16.3485 5.29912C16.9726 5.65347 17.5444 6.09238 18.0518 6.59976Z" fill="#FAF2AF"/>
</g>
<defs>
<clipPath id="clip0_223_628">
<rect width="25" height="25" fill="white"/>
</clipPath>
</defs>
</svg>
