<svg width="25" height="25" viewBox="0 0 25 25" fill="none" xmlns="http://www.w3.org/2000/svg">
<path opacity="0.5" d="M18.2291 17.1874C18.2291 20.3516 15.6641 22.9166 12.4999 22.9166C9.33578 22.9166 6.77075 20.3516 6.77075 17.1874C6.77075 15.3787 7.60893 13.7658 8.91805 12.7158C9.19268 12.4954 9.37492 12.1725 9.37492 11.8204V5.20825C9.37492 3.48237 10.774 2.08325 12.4999 2.08325C14.2259 2.08325 15.6249 3.48237 15.6249 5.20825V11.8204C15.6249 12.1725 15.8071 12.4954 16.0818 12.7158C17.391 13.7658 18.2291 15.3787 18.2291 17.1874Z" fill="#1C274C"/>
<path d="M13.2812 5.20825C13.2812 4.77678 12.9314 4.427 12.4999 4.427C12.0685 4.427 11.7187 4.77678 11.7187 5.20825V13.9378C11.7187 14.3928 11.409 14.7787 11.0333 15.0352C10.3465 15.5042 9.89575 16.2931 9.89575 17.1874C9.89575 18.6256 11.0617 19.7916 12.4999 19.7916C13.9381 19.7916 15.1041 18.6256 15.1041 17.1874C15.1041 16.2931 14.6534 15.5042 13.9666 15.0352C13.5909 14.7787 13.2812 14.3928 13.2812 13.9378V5.20825Z" fill="#1C274C"/>
</svg>
