<svg width="25" height="25" viewBox="0 0 25 25" fill="none" xmlns="http://www.w3.org/2000/svg">
<g clip-path="url(#clip0_229_756)">
<path d="M14.5917 11.7374L9.54093 8.15435C8.99872 7.76944 8.24699 7.89722 7.86217 8.43968L7.81237 8.50977C7.42777 9.0521 7.55538 9.80371 8.09779 10.1885L13.1485 13.7718C13.6909 14.1565 14.4424 14.0288 14.8273 13.4865L14.877 13.4163C15.262 12.8738 15.1341 12.1222 14.5917 11.7374Z" fill="#F39A2B"/>
<path d="M14.2839 10.3368L14.2138 10.2871C13.6714 9.90226 12.9197 10.0301 12.5349 10.5724L6.81174 18.6395C6.42692 19.1818 6.55473 19.9336 7.09714 20.3183L7.16723 20.3681C7.70966 20.7529 8.46127 20.6252 8.84599 20.0827L14.5692 12.0156C14.9541 11.4732 14.8263 10.7217 14.2839 10.3368Z" fill="#E5594F"/>
<path d="M21.7691 12.8205C21.7602 14.0438 21.5712 15.0609 21.0977 16.3C20.7746 17.1454 20.0178 18.3063 19.3758 19.0126C17.8378 20.7048 15.6531 21.7785 13.4975 21.9817C11.0373 22.2137 8.86811 21.555 6.87431 20.064C7.06108 20.2037 6.69033 19.9075 6.70192 19.9173C6.59055 19.824 6.483 19.7264 6.37553 19.6286C6.16062 19.4332 5.95793 19.2249 5.75969 19.0128C5.31662 18.5384 5.12033 18.2675 4.74799 17.6733C4.08613 16.617 3.75424 15.7133 3.50271 14.4375C3.40468 13.9406 3.37099 13.4658 3.36633 12.8205C3.35337 11.0302 0.576046 11.029 0.589035 12.8205C0.628268 18.2523 4.35119 23.078 9.62451 24.4347C14.9097 25.7945 20.5874 23.2321 23.1477 18.44C24.0694 16.7148 24.5323 14.7725 24.5465 12.8204C24.5593 11.029 21.782 11.0302 21.7691 12.8205Z" fill="#4A5699"/>
<path d="M3.36626 12.243C3.37509 11.0197 3.56408 10.0027 4.03769 8.76346C4.36076 7.91822 5.1176 6.75728 5.75962 6.05086C7.29753 4.35875 9.48208 3.28499 11.6377 3.08175C14.098 2.84981 16.2673 3.50848 18.2611 4.99957C18.0743 4.85989 18.445 5.15601 18.4334 5.1463C18.5448 5.23953 18.6523 5.33724 18.7598 5.43494C18.9747 5.63026 19.1775 5.83863 19.3757 6.05079C19.8188 6.52515 20.0151 6.79605 20.3874 7.39029C21.0493 8.44654 21.3813 9.35025 21.6327 10.626C21.7307 11.1228 21.7645 11.5977 21.7691 12.243C21.782 14.0332 24.5593 14.0346 24.5465 12.243C24.5072 6.81109 20.7841 1.98553 15.5108 0.628816C10.2256 -0.731048 4.54804 1.83145 1.98777 6.62347C1.06606 8.34866 0.603122 10.2909 0.589035 12.243C0.575998 14.0346 3.35332 14.0332 3.36626 12.243Z" fill="#C45FA0"/>
</g>
<defs>
<clipPath id="clip0_229_756">
<rect width="25" height="25" fill="white"/>
</clipPath>
</defs>
</svg>
