<svg width="25" height="25" viewBox="0 0 25 25" fill="none" xmlns="http://www.w3.org/2000/svg">
<g clip-path="url(#clip0_223_666)">
<path d="M0.78125 12.5C0.78125 14.0389 1.08436 15.5628 1.67329 16.9846C2.26221 18.4064 3.12541 19.6982 4.21359 20.7864C5.30178 21.8746 6.59364 22.7378 8.01543 23.3267C9.43721 23.9156 10.9611 24.2188 12.5 24.2188C14.0389 24.2188 15.5628 23.9156 16.9846 23.3267C18.4064 22.7378 19.6982 21.8746 20.7864 20.7864C21.8746 19.6982 22.7378 18.4064 23.3267 16.9846C23.9156 15.5628 24.2188 14.0389 24.2188 12.5C24.2188 10.9611 23.9156 9.43721 23.3267 8.01543C22.7378 6.59364 21.8746 5.30178 20.7864 4.21359C19.6982 3.12541 18.4064 2.26221 16.9846 1.67329C15.5628 1.08436 14.0389 0.78125 12.5 0.78125C10.9611 0.78125 9.43721 1.08436 8.01543 1.67329C6.59364 2.26221 5.30178 3.12541 4.21359 4.21359C3.12541 5.30178 2.26221 6.59364 1.67329 8.01543C1.08436 9.43721 0.78125 10.9611 0.78125 12.5Z" fill="#E5F1FF"/>
<path d="M12.5 4.375C10.1562 6.875 6.09375 10.1562 6.09375 13.75C6.09375 17.3438 8.90625 20.1562 12.5 20.1562C16.0938 20.1562 18.9063 17.3438 18.9063 13.75C18.9063 10.1562 15 6.875 12.5 4.375Z" fill="#9FC8FE"/>
<path d="M12.5 16.7188C11.0937 16.7188 10 15.625 10 14.0625C10 12.6563 11.5625 11.5625 12.5 10.4688C13.4375 11.5625 15 12.6563 15 14.0625C15 15.4688 13.9062 16.7188 12.5 16.7188Z" fill="#72AEFD"/>
</g>
<defs>
<clipPath id="clip0_223_666">
<rect width="25" height="25" fill="white"/>
</clipPath>
</defs>
</svg>
