<svg width="25" height="25" viewBox="0 0 25 25" fill="none" xmlns="http://www.w3.org/2000/svg">
<g clip-path="url(#clip0_230_761)">
<path d="M13.2065 3.94033C13.0489 3.6686 12.7718 3.53271 12.5 3.53271C12.2283 3.53271 11.9511 3.6686 11.7935 3.94033L7.55435 11.2827C7.05435 12.1414 6.79346 13.1305 6.79346 14.1305C6.79346 17.2772 9.35322 19.8371 12.5 19.8371C15.6468 19.8371 18.2065 17.2773 18.2065 14.1305C18.2065 12.1523 17.7554 11.8153 13.2065 3.94033Z" fill="#9DF1FD"/>
<path d="M18.2065 14.1305C18.2065 17.2772 15.6468 19.8371 12.5 19.8371V3.53271C12.7717 3.53271 13.0489 3.6686 13.2065 3.94033C17.7554 11.8153 18.2065 12.1523 18.2065 14.1305Z" fill="#87D7E4"/>
<path d="M13.3152 15.7608C13.3152 16.2119 12.9511 16.5761 12.5 16.5761C11.1522 16.5761 10.0543 15.4783 10.0543 14.1304C10.0543 13.6957 10.163 13.2826 10.3804 12.913C10.6032 12.5217 11.1032 12.3913 11.4945 12.6141C11.8804 12.837 12.0162 13.3369 11.7879 13.7282C11.7173 13.8532 11.6847 13.9836 11.6847 14.1304C11.6847 14.5815 12.0488 14.9457 12.4999 14.9457C12.9511 14.9457 13.3152 15.3097 13.3152 15.7608Z" fill="#E7ECFD"/>
<path d="M25 12.5C25 19.3913 19.3912 25 12.5 25C9.14674 25 5.97276 23.6522 3.64669 21.3152V22.2826C3.64669 22.7337 3.28262 23.0978 2.83145 23.0978C2.38038 23.0978 2.01622 22.7337 2.01622 22.2826V19.1956C1.90753 18.6576 2.34234 18.2065 2.83145 18.2065H6.09234C6.54346 18.2065 6.90757 18.5706 6.90757 19.0218C6.90757 19.4728 6.54351 19.837 6.09234 19.837H4.49454C6.53799 22.0707 9.4293 23.3696 12.5 23.3696C18.4945 23.3696 23.3695 18.4946 23.3695 12.5C23.3695 11.4674 23.2228 10.4457 22.9402 9.46743C22.8152 9.03266 23.0598 8.58154 23.4945 8.45654C23.9239 8.33154 24.3804 8.58154 24.5055 9.01088C24.8314 10.1413 25 11.3152 25 12.5Z" fill="#7CCC92"/>
<path d="M23.0978 2.71738V5.97827C23.0978 6.41304 22.7771 6.79351 22.1957 6.79351C22.1903 6.79351 22.1903 6.79351 22.1903 6.79351H19.0217C18.5706 6.79351 18.2065 6.42939 18.2065 5.97827C18.2065 5.52715 18.5706 5.16304 19.0217 5.16304H20.5054C18.462 2.92935 15.5707 1.63042 12.5 1.63042C6.50542 1.63042 1.63042 6.50542 1.63042 12.5C1.63042 13.5326 1.77715 14.5543 2.05977 15.5326C2.18477 15.9674 1.94019 16.4185 1.50542 16.5435C1.42935 16.5652 1.35322 16.5761 1.27715 16.5761C0.923877 16.5761 0.597803 16.3424 0.494482 15.9892C0.168555 14.8587 0 13.6848 0 12.5C0 5.60869 5.60874 0 12.5 0C15.913 0 19.1304 1.39131 21.4674 3.80435V2.71738C21.4674 2.26631 21.8314 1.90215 22.2826 1.90215C22.7337 1.9022 23.0978 2.26631 23.0978 2.71738Z" fill="#7CCC92"/>
<path d="M13.3152 15.761C13.3152 16.2121 12.9512 16.5762 12.5 16.5762V14.9458C12.9511 14.9458 13.3152 15.3099 13.3152 15.761Z" fill="#DADFF0"/>
<path d="M25 12.5C25 19.3914 19.3913 25 12.5 25V23.3696C18.4946 23.3696 23.3696 18.4946 23.3696 12.5C23.3696 11.4674 23.2229 10.4457 22.9402 9.46743C22.8152 9.03266 23.0598 8.58154 23.4946 8.45654C23.9239 8.33154 24.3805 8.58154 24.5055 9.01088C24.8314 10.1414 25 11.3153 25 12.5Z" fill="#34B772"/>
<path d="M23.0978 2.71738V5.97827C23.0978 6.41304 22.7771 6.79351 22.1957 6.79351C22.1903 6.79351 22.1903 6.79351 22.1903 6.79351H19.0217C18.5706 6.79351 18.2065 6.42939 18.2065 5.97827C18.2065 5.52715 18.5706 5.16304 19.0217 5.16304H20.5054C18.462 2.92935 15.5707 1.63042 12.5 1.63042V0C15.913 0 19.1304 1.39131 21.4674 3.80435V2.71738C21.4674 2.26631 21.8314 1.90215 22.2826 1.90215C22.7337 1.9022 23.0978 2.26631 23.0978 2.71738Z" fill="#34B772"/>
</g>
<defs>
<clipPath id="clip0_230_761">
<rect width="25" height="25" fill="white"/>
</clipPath>
</defs>
</svg>
